<?xml version="1.0" standalone="no"?>
<!DOCTYPE svg PUBLIC "-//W3C//DTD SVG 20010904//EN"
 "http://www.w3.org/TR/2001/REC-SVG-20010904/DTD/svg10.dtd">
<svg version="1.0" xmlns="http://www.w3.org/2000/svg"
 width="500.000000pt" height="333.000000pt" viewBox="0 0 500.000000 333.000000"
 preserveAspectRatio="xMidYMid meet">

<g transform="translate(0.000000,333.000000) scale(0.100000,-0.100000)"
fill="#000000" stroke="none">
<path d="M2490 3156 c-52 -29 -102 -46 -133 -46 -60 -1 -160 -84 -215 -178
-76 -132 -79 -148 -74 -339 1 -54 6 -93 12 -93 6 0 10 6 10 13 0 21 17 40 29
33 8 -5 7 -12 -4 -22 -8 -9 -15 -23 -15 -32 0 -13 4 -12 19 7 17 23 19 23 39
6 l20 -18 -20 -28 c-11 -15 -17 -32 -14 -38 12 -18 23 -12 36 19 13 32 28 38
48 18 19 -19 25 -3 26 66 1 36 6 70 12 76 20 20 113 50 120 39 3 -6 2 -15 -4
-21 -8 -8 -2 -20 19 -41 34 -34 85 -44 173 -33 55 7 56 8 77 56 23 53 36 55
62 10 31 -53 45 -60 107 -60 61 0 109 13 122 33 4 7 8 26 8 43 0 16 6 36 13
43 10 10 8 15 -7 27 -11 8 -28 14 -38 14 -24 0 -36 34 -43 122 -9 126 -23 197
-45 228 -26 36 -88 70 -127 70 -16 0 -37 6 -48 14 -31 21 -135 29 -165 12z
m248 -215 c28 -15 73 -82 100 -150 28 -69 28 -71 -10 -71 -17 0 -58 -7 -91
-17 -55 -15 -62 -15 -106 0 -25 9 -72 20 -104 23 -51 6 -64 3 -120 -24 -100
-48 -138 -64 -144 -59 -6 7 16 76 32 100 7 10 11 27 8 38 -3 10 -1 25 4 32 5
6 15 31 23 55 16 51 25 59 87 77 57 17 288 14 321 -4z m187 -261 c0 -7 -10
-19 -22 -27 -22 -15 -23 -15 -23 20 0 33 2 36 23 28 12 -5 22 -14 22 -21z
m-406 -3 c8 -11 0 -16 -39 -27 -28 -8 -50 -18 -50 -24 0 -15 -20 16 -20 32 0
27 89 43 109 19z m347 -32 c8 -30 14 -31 48 -4 l26 20 0 -26 c0 -53 -15 -65
-78 -63 -35 1 -45 3 -24 5 17 2 32 9 32 14 0 16 -22 53 -39 66 -14 11 -13 12
6 13 16 0 25 -8 29 -25z m-242 -20 c-16 -13 -17 -16 -4 -24 11 -8 12 -13 4
-21 -22 -22 -142 -40 -129 -20 4 6 -5 7 -23 4 -18 -4 -32 -1 -37 6 -10 16 -7
17 48 24 43 6 65 -5 35 -17 -7 -3 -1 -6 15 -6 15 -1 27 4 27 10 0 5 4 8 10 4
5 -3 16 8 24 24 9 16 21 31 28 34 22 7 23 -2 2 -18z"/>
<path d="M2656 2469 c-24 -19 -31 -20 -48 -10 -16 10 -19 10 -16 -1 2 -7 14
-17 26 -23 25 -11 28 -34 10 -54 -11 -12 -9 -13 7 -7 66 24 175 12 175 -19 0
-12 -4 -12 -25 -1 -17 9 -37 11 -63 5 -20 -4 -61 -12 -90 -17 -49 -8 -53 -7
-49 9 7 25 -12 29 -50 10 -29 -15 -31 -20 -31 -68 -1 -47 1 -51 14 -38 9 8 13
19 10 24 -11 17 19 29 97 40 119 17 152 14 179 -11 19 -19 23 -33 23 -80 0
-31 -2 -54 -4 -52 -2 2 -13 -4 -24 -13 -14 -12 -18 -13 -12 -3 5 8 10 23 10
32 1 13 -2 15 -11 7 -7 -6 -22 -8 -33 -4 -13 4 -23 0 -30 -12 -10 -17 -10 -17
-11 1 0 17 -2 18 -17 4 -10 -9 -24 -14 -31 -12 -7 1 -8 0 -3 -2 14 -8 0 -46
-15 -40 -7 3 -16 1 -19 -4 -11 -18 -46 -11 -43 7 4 25 -64 30 -83 6 -11 -13
-11 -17 -1 -20 6 -3 12 -12 12 -21 0 -11 -3 -13 -8 -6 -4 6 -31 14 -61 18 -33
4 -60 14 -67 24 -12 16 -13 16 -19 -1 -9 -22 9 -67 38 -95 50 -47 117 -104
117 -98 0 4 14 0 30 -9 17 -9 30 -20 30 -26 0 -5 12 -14 27 -20 23 -9 30 -7
45 13 9 13 20 35 23 50 4 14 13 29 21 32 8 3 14 11 14 19 0 17 36 50 77 71 38
19 62 52 73 101 5 24 4 35 -4 35 -12 0 -9 88 4 105 11 15 4 60 -9 57 -11 -2
-21 4 -56 36 -9 8 -13 22 -9 37 7 29 -15 44 -32 21 -12 -16 -13 -16 -17 1 -4
17 -5 17 -6 -1 -1 -17 -2 -16 -19 4 l-17 21 -29 -22z m44 -23 c0 -2 -7 -6 -15
-10 -8 -3 -15 -1 -15 4 0 6 7 10 15 10 8 0 15 -2 15 -4z"/>
<path d="M2095 2405 c14 -71 22 -101 33 -120 6 -11 19 -46 28 -78 9 -32 21
-60 25 -63 5 -3 10 23 10 58 2 72 11 124 22 121 4 -2 6 0 5 5 0 4 -10 6 -20 4
-28 -5 -65 23 -88 66 -20 36 -21 36 -15 7z"/>
<path d="M2636 2291 c5 -5 18 -11 29 -14 15 -4 13 -5 -7 -6 -16 0 -28 -5 -28
-10 0 -14 33 -19 90 -13 38 3 54 1 61 -9 6 -11 11 -11 21 -1 9 9 9 12 0 12 -7
0 -12 11 -12 25 0 25 -1 25 -82 25 -49 0 -78 -4 -72 -9z"/>
<path d="M2497 2222 c-28 -6 -1 -32 32 -31 16 1 19 3 9 6 -9 2 -18 10 -20 16
-2 7 -11 11 -21 9z"/>
<path d="M2370 2190 c0 -5 5 -10 10 -10 6 0 10 5 10 10 0 6 -4 10 -10 10 -5 0
-10 -4 -10 -10z"/>
<path d="M2730 1808 c5 -17 7 -42 3 -56 -4 -18 -2 -23 8 -20 18 6 24 61 9 88
-17 31 -30 24 -20 -12z"/>
<path d="M2801 1803 c0 -11 59 -56 65 -51 2 3 -11 17 -31 32 -19 15 -35 23
-34 19z"/>
<path d="M2920 1760 c14 -11 32 -22 40 -25 23 -9 110 -120 146 -188 38 -71 41
-72 15 -3 -26 69 -102 168 -158 205 -51 34 -83 42 -43 11z"/>
<path d="M2470 1745 c0 -9 99 -55 140 -64 24 -5 52 -6 64 -1 18 7 16 9 -14 9
-40 1 -114 22 -159 45 -17 9 -31 14 -31 11z"/>
<path d="M1930 1662 c100 -69 138 -105 173 -163 43 -74 48 -72 11 6 -26 55
-79 107 -155 153 -43 26 -65 29 -29 4z"/>
<path d="M2094 1600 c9 -14 23 -40 31 -57 9 -18 17 -33 20 -33 10 0 -18 58
-41 85 -19 22 -22 23 -10 5z"/>
<path d="M2137 1367 c17 -20 29 -28 31 -20 2 8 -7 22 -20 33 -36 30 -43 23
-11 -13z"/>
<path d="M2197 1350 c-8 -29 2 -98 14 -106 11 -6 11 35 1 91 -7 36 -8 38 -15
15z"/>
<path d="M2060 1346 c0 -2 7 -7 16 -10 8 -3 12 -2 9 4 -6 10 -25 14 -25 6z"/>
<path d="M2162 1294 c10 -10 20 -16 22 -13 3 3 -5 11 -17 18 -21 13 -21 12 -5
-5z"/>
<path d="M3210 1240 c0 -5 7 -7 15 -4 8 4 15 8 15 10 0 2 -7 4 -15 4 -8 0 -15
-4 -15 -10z"/>
<path d="M2226 1217 c3 -10 9 -15 12 -12 3 3 0 11 -7 18 -10 9 -11 8 -5 -6z"/>
<path d="M3205 1191 c-3 -11 3 -48 13 -83 11 -35 22 -84 26 -110 6 -42 5 -47
-9 -42 -13 5 -15 2 -9 -20 4 -19 0 -33 -20 -57 -14 -17 -24 -35 -20 -40 3 -5
25 14 49 44 25 30 59 59 79 67 25 9 33 17 26 25 -12 14 37 63 100 100 27 16
35 24 20 20 -28 -8 -92 -45 -132 -77 -27 -22 -28 -22 -42 -3 -8 11 -12 23 -10
27 3 5 2 8 -3 8 -8 0 -15 13 -47 94 -20 49 -21 49 9 44 14 -3 25 -1 25 3 0 5
-4 9 -9 9 -5 0 -16 3 -24 6 -10 3 -18 -2 -22 -15z"/>
<path d="M3590 1136 c0 -2 7 -7 16 -10 8 -3 12 -2 9 4 -6 10 -25 14 -25 6z"/>
<path d="M2316 1061 c-4 -7 -5 -15 -2 -18 9 -9 19 4 14 18 -4 11 -6 11 -12 0z"/>
<path d="M3650 930 c-13 -8 -13 -10 2 -10 9 0 20 5 23 10 8 13 -5 13 -25 0z"/>
<path d="M3382 918 c3 -7 15 -14 29 -16 23 -2 23 -2 5 13 -24 18 -39 20 -34 3z"/>
<path d="M2390 879 c0 -3 6 -13 13 -21 11 -16 16 -15 64 0 29 9 53 19 53 22 0
3 -29 5 -65 5 -36 0 -65 -3 -65 -6z"/>
<path d="M1836 858 c-22 -11 -64 -44 -93 -73 -44 -43 -53 -58 -53 -87 0 -28 5
-37 25 -46 14 -7 35 -12 45 -12 21 0 27 15 11 24 -5 3 -12 21 -15 41 -10 54
19 98 104 157 34 23 23 21 -24 -4z"/>
<path d="M2550 830 c-52 -16 -103 -29 -112 -29 -18 -1 -26 -21 -8 -21 40 0
220 62 220 75 0 3 -1 5 -2 4 -2 0 -46 -14 -98 -29z"/>
<path d="M2765 633 c-11 -3 -23 -8 -27 -12 -13 -12 116 -71 165 -76 47 -4 187
-69 187 -86 0 -10 -53 -39 -73 -39 -8 0 -20 -7 -27 -15 -7 -9 -19 -14 -26 -11
-7 3 -15 -2 -18 -11 -4 -8 -13 -13 -21 -9 -8 3 -15 1 -15 -4 0 -6 -6 -10 -14
-10 -7 0 -34 -9 -59 -20 -24 -11 -60 -22 -78 -24 -19 -3 -36 -5 -39 -6 -3 -1
-13 -2 -22 -1 -10 1 -18 -3 -18 -8 0 -6 -19 -11 -44 -11 -40 0 -43 -2 -39 -24
6 -32 -16 -45 -25 -15 l-6 24 -6 -24 c-4 -16 -16 -27 -34 -32 -16 -5 -33 -14
-37 -21 -7 -10 -9 -10 -9 1 0 10 -3 11 -13 3 -7 -7 -38 -17 -67 -23 -53 -11
-80 -28 -80 -48 0 -5 -9 -13 -20 -16 -11 -4 -33 -20 -49 -37 l-28 -30 -54 23
c-30 12 -63 30 -74 39 -39 33 -44 33 -35 -1 5 -17 7 -48 4 -70 l-6 -39 60 0
c39 0 62 5 66 13 5 9 7 9 12 0 7 -15 614 -19 614 -4 0 5 14 18 30 28 23 13 30
24 28 43 -2 14 2 25 7 25 6 0 24 12 40 28 16 15 35 27 41 27 6 0 21 11 34 25
13 14 30 23 38 20 12 -4 13 -3 2 10 -8 9 -8 15 -2 15 6 0 13 -8 16 -18 6 -18
76 -46 76 -30 0 19 23 -6 41 -46 25 -56 24 -21 -2 59 -12 36 -19 68 -16 71 8
8 77 -39 77 -53 0 -15 31 -53 42 -53 4 0 5 7 2 15 -4 8 -2 15 4 15 5 0 12 -23
16 -51 4 -28 9 -49 12 -46 6 6 -12 113 -37 225 -10 45 -19 89 -19 97 0 22 24
18 83 -12 76 -38 169 -42 284 -12 53 14 117 24 162 24 67 0 75 2 92 25 12 15
21 48 24 80 2 30 2 44 -1 31 -5 -19 -8 -21 -16 -10 -7 10 -11 11 -14 2 -4 -8
-14 -8 -41 3 -44 19 -109 10 -123 -16 -13 -25 -13 -30 4 -24 8 3 17 1 21 -5 3
-7 -2 -11 -14 -11 -12 0 -21 -7 -21 -15 0 -8 -5 -15 -11 -15 -6 0 -8 9 -4 20
4 14 2 20 -9 20 -8 0 -17 -4 -21 -10 -3 -5 -12 -7 -20 -3 -9 3 -15 -1 -15 -8
0 -12 -2 -12 -9 0 -7 11 -13 10 -30 -6 -18 -16 -34 -19 -103 -18 -91 2 -155
12 -164 26 -3 5 -16 9 -29 9 -13 0 -25 4 -27 9 -1 6 -14 12 -28 15 -104 20
-252 65 -258 79 -2 4 -10 7 -19 7 -8 0 -21 7 -29 15 -9 8 -26 15 -38 15 -13 0
-36 2 -52 4 -16 2 -38 2 -49 -1z m323 -255 c-3 -15 -37 -37 -57 -38 -11 0 -11
3 -1 14 6 8 19 12 27 9 10 -4 14 -2 10 4 -6 9 0 16 21 22 1 1 1 -5 0 -11z"/>
<path d="M1840 517 c0 -8 7 -17 15 -21 8 -3 15 -2 15 3 0 5 -7 14 -15 21 -12
10 -15 10 -15 -3z"/>
<path d="M1878 454 c2 -14 13 -42 23 -63 11 -22 14 -40 8 -45 -14 -15 -11 -46
5 -46 16 0 46 26 46 40 0 5 -7 15 -15 24 -8 8 -15 22 -15 31 0 8 -6 18 -14 21
-8 3 -18 19 -21 35 -8 36 -24 39 -17 3z"/>
<path d="M1840 446 c0 -8 4 -17 9 -20 5 -4 7 3 4 14 -6 23 -13 26 -13 6z"/>
<path d="M1860 400 c0 -5 5 -10 10 -10 6 0 10 5 10 10 0 6 -4 10 -10 10 -5 0
-10 -4 -10 -10z"/>
<path d="M1975 255 c-4 -11 -14 -36 -22 -55 -8 -19 -28 -72 -43 -117 l-29 -83
34 0 c33 0 36 3 76 83 l41 82 -25 55 c-21 46 -26 52 -32 35z"/>
<path d="M1880 200 c-17 -52 -8 -61 15 -14 10 22 13 40 8 45 -6 6 -15 -6 -23
-31z"/>
<path d="M1927 223 c-4 -3 -7 -13 -7 -22 1 -13 3 -13 11 2 11 19 8 33 -4 20z"/>
</g>
</svg>
